<svg width="512" height="512" viewBox="0 0 512 512" fill="none" xmlns="http://www.w3.org/2000/svg">
  <rect width="512" height="512" rx="128" fill="#0f172a"/>
  <rect width="512" height="512" rx="128" fill="#818cf8" fill-opacity="0.1"/>
  <path d="M160 213.333V149.333C160 143.444 164.777 138.667 170.667 138.667H192C197.89 138.667 202.667 143.444 202.667 149.333V213.333C202.667 229.626 193.361 243.766 181.333 250.729V373.333H160V250.729C147.973 243.766 138.667 229.626 138.667 213.333V149.333C138.667 143.444 143.444 138.667 149.333 138.667H170.667" stroke="#818cf8" stroke-width="24" stroke-linecap="round" stroke-linejoin="round"/>
  <path d="M352 138.667C316.654 138.667 288 167.321 288 202.667V245.333C288 251.223 292.777 256 298.667 256H309.333V373.333H330.667V256H341.333C347.223 256 352 251.223 352 245.333V138.667Z" stroke="#818cf8" stroke-width="24" stroke-linecap="round" stroke-linejoin="round"/>
</svg>
